<?xml version="1.0" encoding="utf-8"?>
<!-- Generator: Adobe Illustrator 16.0.0, SVG Export Plug-In . SVG Version: 6.00 Build 0)  -->
<!DOCTYPE svg PUBLIC "-//W3C//DTD SVG 1.1//EN" "http://www.w3.org/Graphics/SVG/1.1/DTD/svg11.dtd">
<svg version="1.1" id="Layer_1" xmlns="http://www.w3.org/2000/svg" xmlns:xlink="http://www.w3.org/1999/xlink" x="0px" y="0px"
	 width="50px" height="50px" viewBox="0 0 50 50" enable-background="new 0 0 50 50" xml:space="preserve">
<g>
	<path d="M42.663,34.605c-0.024-0.025-0.058-0.038-0.097-0.038h-0.693c-0.047-0.228-0.135-0.42-0.262-0.587h0.947
		c0.039,0,0.068-0.014,0.096-0.035c0.022-0.025,0.035-0.059,0.035-0.097v-0.414c0-0.036-0.013-0.067-0.035-0.095
		c-0.025-0.021-0.057-0.035-0.096-0.035H39.17c-0.037,0-0.066,0.014-0.093,0.035c-0.025,0.025-0.036,0.059-0.036,0.095v0.54
		c0,0.037,0.011,0.066,0.039,0.094c0.021,0.025,0.059,0.039,0.09,0.039h0.592c0.572,0,0.938,0.151,1.092,0.46H39.17
		c-0.037,0-0.066,0.013-0.093,0.038c-0.025,0.021-0.036,0.054-0.036,0.092v0.416c0,0.037,0.011,0.066,0.036,0.094
		c0.022,0.024,0.056,0.036,0.093,0.036h1.738c-0.061,0.224-0.198,0.394-0.416,0.509c-0.219,0.117-0.508,0.176-0.866,0.176H39.17
		c-0.031,0-0.064,0.014-0.09,0.039c-0.028,0.023-0.039,0.059-0.039,0.092v0.521c0,0.034,0.011,0.063,0.036,0.087
		c0.521,0.554,1.196,1.33,2.026,2.326c0.023,0.031,0.06,0.049,0.103,0.049H42c0.059,0,0.1-0.025,0.119-0.074
		c0.025-0.049,0.021-0.095-0.02-0.139c-0.791-0.97-1.414-1.699-1.867-2.184c0.461-0.056,0.836-0.201,1.123-0.447
		c0.287-0.244,0.463-0.563,0.526-0.952h0.683c0.037,0,0.07-0.012,0.097-0.036c0.022-0.025,0.034-0.057,0.034-0.094V34.7
		C42.699,34.659,42.688,34.629,42.663,34.605L42.663,34.605z"/>
</g>
<path fill="#FF0000" d="M32.493,12.63c2.635-0.021,4.521-2.068,4.804-4.176c0.264-1.945-0.629-4.013-2.371-4.945
	c-0.568-0.304-1.236-0.483-1.845-0.729c-0.427,0-0.831,0-1.257,0c-0.202,0.061-0.405,0.12-0.629,0.163
	c-2.735,0.77-4.316,3.604-3.465,6.239C28.419,11.292,30.284,12.67,32.493,12.63z"/>
<path fill="none" stroke="#000000" stroke-width="1.7" stroke-miterlimit="10" d="M16.178,12.648
	c2.818-0.039,4.966-2.492,4.844-5.008C20.92,5.779,20.111,4.42,18.57,3.489c-0.547-0.347-1.216-0.466-1.823-0.71
	c-0.426,0-0.832,0-1.257,0C15.428,2.82,15.388,2.84,15.327,2.86c-2.635,0.443-4.419,2.856-4.095,5.514
	C11.496,10.522,13.482,12.69,16.178,12.648z"/>
<path fill="#FF0000" d="M40.721,42.523c-1.722,0-3.424,0-5.146,0c0,1.194,0,2.369,0,3.534c0,0.813,0.304,1.489,0.932,1.97
	c0.365,0.264,0.791,0.424,1.195,0.627c0.284,0,0.589,0,0.872,0c0.082-0.031,0.183-0.07,0.264-0.102
	c1.217-0.427,1.905-1.316,1.926-2.604c0.021-1.057,0-2.1,0-3.152C40.764,42.705,40.742,42.615,40.721,42.523z"/>
<path fill="#FF0000" d="M47.471,30.867c-0.973,0-1.945,0-2.919,0c-0.202,0-0.323-0.021-0.385-0.243
	c-0.224-0.811-0.771-1.358-1.541-1.701c-0.062-0.021-0.142-0.123-0.161-0.184c-0.304-1.258-0.548-2.535-0.872-3.789
	c-0.77-3.162-1.581-6.324-2.37-9.485c-0.183-0.729-0.445-1.418-0.974-1.987c-0.892-0.869-1.944-1.152-3.183-1.054
	c-1.926,0.203-3.729,1.702-4.094,3.607c-0.203,1.054-0.406,2.105-0.607,3.122c-0.086,0.401-0.163,0.884-0.27,1.361l-3.563,2.291
	l-5.604-0.524c-0.979-0.093-1.846,0.626-1.938,1.604c-0.093,0.979,0.625,1.85,1.605,1.939l6.213,0.585
	c0.396,0.037,0.795-0.062,1.129-0.274l4.303-2.768c0.063,0.197,0.137,0.436,0.148,0.483c0.264,1.178,0.506,2.372,0.771,3.549
	c0.183,0.853,0.466,1.644,1.113,2.292c0.566,0.564,1.236,0.627,1.945,0.588c0.082-0.021,0.184-0.123,0.223-0.203
	c0.266-0.588,0.689-1.033,1.195-1.398c0.104-0.082,0.184-0.283,0.162-0.386c-0.525-2.411-1.154-4.845-2.046-7.153
	c-0.144-0.364-0.265-0.711-0.364-1.054c-0.041-0.122,0.039-0.326,0.103-0.366c0.12-0.019,0.323,0.021,0.385,0.104
	c0.144,0.201,0.283,0.425,0.365,0.669c0.909,2.675,1.7,5.35,2.329,8.104c0.041,0.186,0,0.284-0.182,0.365
	c-0.711,0.324-1.197,0.854-1.42,1.581c-0.102,0.282-0.242,0.324-0.507,0.324c-0.974,0-1.926,0-2.897,0
	c-0.121,0-0.265,0.021-0.385,0.021c0,3.647,0,7.246,0,10.854c4.903,0,9.787,0,14.713,0c0-3.641,0-7.229,0-10.874
	C47.734,30.867,47.613,30.867,47.471,30.867z M39.445,30.28c0.668,0.466,1.539,0.466,2.188,0.019
	c0.485-0.343,1.072-0.101,1.217,0.568c-1.541,0-3.063,0-4.58,0C38.352,30.239,38.979,29.935,39.445,30.28z M40.702,40.695
	c-2.412,0-4.356-1.955-4.356-4.356c0-2.392,1.944-4.355,4.356-4.355c2.391,0,4.356,1.966,4.356,4.355
	C45.061,38.74,43.093,40.695,40.702,40.695z"/>
<path fill="none" stroke="#000000" stroke-width="1.7" stroke-miterlimit="10" d="M29.641,24.517
	c-0.092-0.979-0.959-1.695-1.938-1.604L22.1,23.438l-1.54-0.99l0.037-0.109c-0.204-0.064-0.394-0.145-0.573-0.235l-0.621-0.397
	c-0.572-0.469-0.95-1.113-1.116-1.921c-0.203-0.935-0.365-1.884-0.527-2.816c-0.162-0.852-0.263-1.702-0.79-2.432
	c-1.398-1.986-3.75-2.656-6-1.702c-1.053,0.445-1.844,1.175-2.148,2.309c-0.242,0.873-0.426,1.744-0.607,2.637
	c-0.588,2.718-1.175,5.474-1.742,8.188c-0.285,1.297,0.142,2.412,1.033,3.347c0.243,0.223,0.304,0.466,0.304,0.771
	c0,5.309,0,10.618,0,15.93c0,0.813,0.284,1.521,0.933,2.008c0.365,0.265,0.791,0.436,1.176,0.639c0.324,0,0.648,0,0.951,0
	c0.041-0.021,0.082-0.052,0.123-0.07c1.418-0.518,2.006-1.355,2.006-2.838c0-4.965,0.021-9.931,0.021-14.876
	c0-0.284,0.081-0.447,0.324-0.568c0.993-0.465,1.642-1.233,1.905-2.31c0.223-0.932,0.405-1.865,0.607-2.797
	c0.102-0.406,0.183-0.813,0.305-1.317c0.932,1.014,2.006,1.644,3.223,2.047v-0.001l1.311,0.843c0.334,0.217,0.732,0.313,1.129,0.274
	l6.215-0.586C29.016,26.363,29.732,25.495,29.641,24.517z"/>
</svg>
