<?xml version="1.0" encoding="utf-8"?>
<!-- Generator: Adobe Illustrator 16.0.0, SVG Export Plug-In . SVG Version: 6.00 Build 0)  -->
<!DOCTYPE svg PUBLIC "-//W3C//DTD SVG 1.1//EN" "http://www.w3.org/Graphics/SVG/1.1/DTD/svg11.dtd">
<svg version="1.1" id="Layer_1" xmlns="http://www.w3.org/2000/svg" xmlns:xlink="http://www.w3.org/1999/xlink" x="0px" y="0px"
	 width="50px" height="50px" viewBox="0 0 50 50" enable-background="new 0 0 50 50" xml:space="preserve">
<g>
	<g>
		<path fill="#FF0000" d="M27.459,26.241c-4.068,0-7.377-3.312-7.377-7.377c0-4.068,3.309-7.377,7.377-7.377
			c4.068,0,7.377,3.309,7.377,7.377C34.836,22.932,31.527,26.241,27.459,26.241z"/>
		<path fill="#FFFFFF" d="M12.705,41.803c-1.355,0-2.459,1.104-2.459,2.46c0,1.356,1.104,2.459,2.459,2.459
			c1.356,0,2.459-1.104,2.459-2.459C15.164,42.906,14.061,41.803,12.705,41.803z M12.705,45.082c-0.452,0-0.819-0.367-0.819-0.819
			s0.367-0.816,0.819-0.816c0.453,0,0.82,0.364,0.82,0.816S13.157,45.082,12.705,45.082z"/>
		<path fill="#FFFFFF" d="M37.295,41.803c-1.355,0-2.459,1.104-2.459,2.46c0,1.356,1.104,2.459,2.459,2.459s2.459-1.104,2.459-2.459
			C39.754,42.906,38.65,41.803,37.295,41.803z M37.295,45.082c-0.453,0-0.82-0.367-0.82-0.819s0.367-0.816,0.82-0.816
			c0.452,0,0.818,0.364,0.818,0.816C38.115,44.715,37.748,45.082,37.295,45.082z"/>
		<path fill="#FFFFFF" d="M43.729,33.656c-0.324-0.98-1.248-1.689-2.336-1.689h-2.601c-1.571,0-3.112,0.595-4.283,1.643h-4.592
			v-1.188c0-1.604-1.308-2.914-2.914-2.914c-1.017,0-1.974,0.543-2.498,1.415l-1.61,2.687h-2.034c-0.259,0-0.49-0.124-0.632-0.346
			c-0.142-0.219-0.163-0.479-0.057-0.717l1.648-3.707c0.539-1.213-0.005-2.646-1.211-3.198c-1.007-0.461-2.199-0.181-2.898,0.683
			l-4.668,5.756l-7.151,2.2c-2.299,0.708-3.845,2.799-3.845,5.205v2.905c0,1.484,1.208,2.691,2.691,2.691H7.03
			C7.433,47.857,9.82,50,12.705,50c2.885,0,5.272-2.143,5.672-4.918h13.246C32.023,47.857,34.41,50,37.295,50
			s5.271-2.143,5.672-4.918h0.066c2.712,0,4.918-2.206,4.918-4.918v-1.64C47.951,36.049,46.111,33.995,43.729,33.656z
			 M25.912,31.767c0.23-0.382,0.648-0.616,1.093-0.616c0.702,0,1.274,0.568,1.274,1.271v1.188h-3.471L25.912,31.767z M12.705,48.361
			c-2.26,0-4.098-1.839-4.098-4.102c0-2.26,1.838-4.099,4.098-4.099c2.26,0,4.099,1.839,4.099,4.099
			C16.804,46.522,14.964,48.361,12.705,48.361z M37.295,48.361c-2.26,0-4.098-1.839-4.098-4.102c0-2.26,1.838-4.099,4.098-4.099
			S41.393,42,41.393,44.26C41.395,46.522,39.555,48.361,37.295,48.361z M46.313,40.164c0,1.809-1.472,3.279-3.276,3.279h-0.065
			c-0.398-2.776-2.785-4.919-5.673-4.919c-2.885,0-5.271,2.143-5.672,4.919H18.377c-0.4-2.776-2.788-4.919-5.672-4.919
			c-2.884,0-5.272,2.143-5.672,4.919H4.74c-0.581,0-1.052-0.476-1.052-1.056v-1.403h2.049c1.13,0,2.049-0.92,2.049-2.053
			c0-1.13-0.919-2.049-2.049-2.049h-0.41v1.643h0.41c0.226,0,0.41,0.184,0.41,0.406c0,0.228-0.185,0.41-0.41,0.41H3.7
			c0.059-1.622,1.114-3.02,2.676-3.5l7.629-2.348l4.982-6.146c0.229-0.279,0.617-0.367,0.943-0.222
			c0.393,0.18,0.57,0.646,0.395,1.041l-1.648,3.709c-0.33,0.742-0.262,1.593,0.181,2.275c0.443,0.682,1.193,1.088,2.006,1.088
			h14.313l0.24-0.24c0.89-0.889,2.12-1.396,3.377-1.396h2.601c0.453,0,0.819,0.365,0.819,0.817v0.819h0.82
			c1.808,0,3.278,1.471,3.278,3.278V40.164L46.313,40.164z"/>
		<rect x="26.639" y="4.098" fill="#FFFFFF" width="1.641" height="5.738"/>
		<rect x="26.639" y="0.831" fill="#FFFFFF" width="1.641" height="1.64"/>
		<rect x="31.556" y="3.28" fill="#FFFFFF" width="1.642" height="8.194"/>
		<rect x="31.556" y="0" fill="#FFFFFF" width="1.642" height="1.64"/>
		<rect x="21.721" y="5.74" fill="#FFFFFF" width="1.64" height="5.735"/>
		<rect x="21.721" y="2.47" fill="#FFFFFF" width="1.64" height="1.642"/>
		<g>
			<path fill="#FFFFFF" d="M30.409,16.279c-0.04-0.041-0.093-0.061-0.154-0.061h-1.146c-0.077-0.372-0.222-0.693-0.431-0.968h1.563
				c0.063,0,0.114-0.021,0.155-0.062c0.04-0.042,0.063-0.093,0.063-0.153v-0.685c0-0.063-0.021-0.116-0.063-0.156
				c-0.041-0.036-0.093-0.059-0.155-0.059h-5.586c-0.063,0-0.111,0.021-0.152,0.059c-0.039,0.04-0.061,0.096-0.061,0.156v0.896
				c0,0.059,0.021,0.105,0.063,0.148s0.095,0.063,0.148,0.063h0.975c0.944,0,1.545,0.252,1.801,0.758h-2.772
				c-0.063,0-0.112,0.021-0.153,0.062c-0.039,0.04-0.06,0.094-0.06,0.153v0.688c0,0.063,0.021,0.112,0.06,0.152
				c0.041,0.041,0.092,0.063,0.153,0.063h2.867c-0.099,0.366-0.328,0.646-0.688,0.839c-0.359,0.189-0.836,0.289-1.429,0.289h-0.753
				c-0.059,0-0.107,0.021-0.148,0.063c-0.043,0.042-0.063,0.097-0.063,0.151v0.854c0,0.061,0.021,0.106,0.061,0.146
				c0.857,0.914,1.976,2.192,3.344,3.835c0.041,0.054,0.098,0.082,0.17,0.082h1.308c0.097,0,0.161-0.042,0.195-0.123
				c0.045-0.08,0.036-0.156-0.027-0.228c-1.306-1.604-2.334-2.806-3.079-3.602c0.76-0.09,1.377-0.335,1.854-0.739
				c0.476-0.4,0.764-0.927,0.865-1.567h1.127c0.063,0,0.115-0.021,0.154-0.063c0.041-0.04,0.063-0.093,0.063-0.151v-0.688
				C30.47,16.37,30.449,16.319,30.409,16.279L30.409,16.279z"/>
		</g>
	</g>
</g>
</svg>
