<?xml version="1.0" encoding="utf-8"?>
<!-- Generator: Adobe Illustrator 16.0.0, SVG Export Plug-In . SVG Version: 6.00 Build 0)  -->
<!DOCTYPE svg PUBLIC "-//W3C//DTD SVG 1.1//EN" "http://www.w3.org/Graphics/SVG/1.1/DTD/svg11.dtd">
<svg version="1.1" id="Layer_1" xmlns="http://www.w3.org/2000/svg" xmlns:xlink="http://www.w3.org/1999/xlink" x="0px" y="0px"
	 width="50px" height="50px" viewBox="0 0 50 50" enable-background="new 0 0 50 50" xml:space="preserve">
<g>
	<g>
		<path fill="#FF0000" d="M22.685,13.351l-3.213-4.017l-3.214,4.017H2.601v15.265h4.017v-6.829c0-2.441,1.978-4.419,4.419-4.419
			c2.44,0,4.418,1.978,4.418,4.419v6.829h20.887V13.351H22.685z M32.326,22.992H21.078v-6.427h11.248V22.992z"/>
		<path d="M44.377,36.648v2.409h-5.381l-2.207-1.473l-6.771-2.402c-0.645-0.227-1.336-0.181-1.944,0.129
			c-0.609,0.31-1.054,0.841-1.253,1.493c-0.344,1.134,0.166,2.357,1.212,2.911l1.737,0.924l-2.527,0.009l-1.04-2.601
			c-0.343-0.853-1.155-1.401-2.074-1.401c-0.717,0-1.396,0.348-1.814,0.93s-0.532,1.337-0.303,2.018l0.243,0.722l-1.762-0.965
			c-0.562-0.307-1.231-0.365-1.837-0.161c-0.606,0.201-1.105,0.652-1.369,1.234c-0.516,1.141-0.041,2.466,1.081,3.021l3.965,1.957
			l8.232,1.674l10.681,0.016l3.134-0.627V48.7H50V36.648H44.377z M23.618,38.514c0.269-0.376,0.919-0.297,1.091,0.134l0.803,2.008
			l-1.447,0.004l-0.532-1.578C23.467,38.887,23.498,38.68,23.618,38.514z M44.377,44.824l-3.293,0.662H30.799l-7.853-1.572
			l-3.871-1.91c-0.34-0.168-0.484-0.57-0.328-0.917c0.081-0.179,0.228-0.313,0.415-0.374c0.186-0.063,0.385-0.045,0.558,0.051
			l2.76,1.51h7.625l3.17-1.588l-4.49-2.389c-0.369-0.194-0.549-0.627-0.428-1.024c0.069-0.231,0.227-0.42,0.441-0.527
			c0.215-0.109,0.458-0.125,0.688-0.047l6.494,2.28l2.528,1.688h5.867L44.377,44.824L44.377,44.824z M48.395,47.093h-2.41v-8.837
			h2.41V47.093z"/>
		<path d="M38.752,27.813H16.258v-6.026c0-2.879-2.342-5.222-5.222-5.222c-2.88,0-5.222,2.343-5.222,5.222v6.026H0.19v4.819h38.562
			V27.813z M7.421,21.787c0-1.993,1.622-3.615,3.615-3.615c1.993,0,3.615,1.622,3.615,3.615v6.026h-7.23V21.787z M37.146,31.025
			H1.797v-1.607h4.017h10.444h20.889V31.025L37.146,31.025z"/>
		<path d="M11.438,14.154h5.206l2.828-3.534l2.828,3.534h5.207h1.632h9.807L36.189,1.3H2.754L0,14.154h9.806H11.438z M23.071,12.548
			l-3.599-4.5l-3.599,4.5H13.07l6.402-8.323l6.401,8.323H23.071z M36.955,12.548H27.9l-7.417-9.641h14.405L36.955,12.548z
			 M1.987,12.548l2.066-9.641h14.405l-7.416,9.641H1.987z"/>
		<path d="M20.275,23.795h12.854v-8.034H20.275V23.795z M21.882,20.582h4.017v1.606h-4.017V20.582z M27.506,22.188v-1.606h4.016
			v1.606H27.506z M31.521,18.975h-4.017v-1.606h4.017V18.975z M25.898,17.368v1.606h-4.018v-1.606H25.898z"/>
	</g>
</g>
</svg>
