<?xml version="1.0" encoding="utf-8"?>
<!-- Generator: Adobe Illustrator 16.0.0, SVG Export Plug-In . SVG Version: 6.00 Build 0)  -->
<!DOCTYPE svg PUBLIC "-//W3C//DTD SVG 1.1//EN" "http://www.w3.org/Graphics/SVG/1.1/DTD/svg11.dtd">
<svg version="1.1" id="Layer_1" xmlns="http://www.w3.org/2000/svg" xmlns:xlink="http://www.w3.org/1999/xlink" x="0px" y="0px"
	 width="50px" height="50px" viewBox="0 0 50 50" enable-background="new 0 0 50 50" xml:space="preserve">
<path fill="#FF0000" d="M40.501,35.979c0.918,0,1.79,0.11,2.577,0.323c0.664,0.184,1.236,0.354,1.865,0.515V33.12l-9.359-10.345
	l-9.201,10.28v6.107c0.21,0.153,0.567,0.334,0.867,0.538c0.825,0.566,1.779,0.985,2.82,1.23c0.027-0.855,0.478-1.635,1.293-2.229
	c0.433-0.313,0.893-0.563,1.521-0.793v-3.926h5.351v2.197C38.967,36.052,39.771,35.979,40.501,35.979L40.501,35.979z"/>
<g>
	<g>
		<defs>
			<rect id="SVGID_1_" x="22.585" y="17.613" width="25.923" height="31.066"/>
		</defs>
		<clipPath id="SVGID_2_">
			<use xlink:href="#SVGID_1_"  overflow="visible"/>
		</clipPath>
		<path clip-path="url(#SVGID_2_)" d="M46.059,31.89h2.407l-3.729-4.161v-6.64h-3.881v2.354l-5.293-5.828L22.768,31.89h2.373
			l10.401-11.621L46.059,31.89z"/>
	</g>
</g>
<rect x="22.585" y="17.613" fill="none" width="25.923" height="31.066"/>
<path fill="none" stroke="#000000" stroke-width="1.7" stroke-miterlimit="10" d="M23.939,40.154c-1.334,0-1.598,1.37-0.929,2.057
	c1.395,1.428,6.534,5.612,9.495,6.328c0.363,0.088,0.802,0.125,1.289,0.125c3.487,0,9.647-1.962,11.171-1.962
	c0.828,0,2.285,0.438,3.545,0.905v-8.021c-0.631-0.204-2.838-0.831-5.894-1.665c-0.673-0.182-1.399-0.264-2.134-0.264
	c-1.76,0-3.608,0.463-5.123,1.078c-2.069,0.836-4.047,1.296-3.537,2.725c0.109,0.31,0.582,0.412,1.199,0.412
	c1.254,0,3.101-0.427,3.717-0.427c0.308,0,0.31,0.104-0.221,0.425c-1.066,0.641-2.58,1-4.22,1c-2.015,0-4.221-0.545-6.022-1.785
	C25.291,40.41,24.516,40.154,23.939,40.154L23.939,40.154z"/>
<g>
	<path fill="#FF0000" d="M21.704,27.59c-2.755-2.313-5.487-4.604-8.218-6.896c0.009-0.018,0.019-0.035,0.028-0.053
		c0.537,0.17,1.072,0.345,1.607,0.515c0.862,0.274,1.723,0.555,2.588,0.822c1.213,0.371,2.466-0.098,3.135-1.161
		c0.667-1.062,0.551-2.415-0.321-3.33c-0.248-0.258-0.564-0.462-0.879-0.644c-1.13-0.652-2.275-1.279-3.412-1.922
		c-0.076-0.042-0.148-0.091-0.257-0.155c3.851-4.591,7.691-9.17,11.554-13.775c3.221,2.701,6.434,5.398,9.674,8.116
		C32.039,15.266,26.883,21.414,21.704,27.59z M24.357,10.231c-2.124,0-3.831,1.64-3.844,3.696c-0.02,2.66,2.33,4.726,4.977,4.379
		c1.771-0.229,3.176-1.777,3.238-3.562C28.811,12.319,26.789,10.232,24.357,10.231z"/>
	<path fill="none" stroke="#000000" stroke-width="1.7" stroke-miterlimit="10" d="M20.104,19.078
		c-0.097-0.573-0.439-0.941-0.931-1.216c-1.696-0.944-3.387-1.896-5.078-2.849c-0.461-0.26-0.651-0.685-0.525-1.137
		c0.118-0.424,0.513-0.702,1.016-0.704c0.34-0.002,0.68-0.01,1.02,0.002c0.176,0.007,0.287-0.056,0.396-0.187
		c0.856-1.03,1.72-2.059,2.583-3.082c0.379-0.451,0.755-0.905,1.144-1.377c-0.06-0.022-0.091-0.041-0.122-0.046
		c-1.482-0.262-2.964-0.527-4.446-0.779c-0.928-0.159-1.852-0.173-2.769,0.094c-1.729,0.497-3.459,0.991-5.196,1.468
		C6.816,9.371,6.414,9.407,6.018,9.439c-0.192,0.017-0.95,0.157-1.585,0.333c0-0.425,0-0.852,0-1.278c-0.824,0-1.629,0-2.481,0
		c0.334,3.607,0.667,7.185,0.999,10.75c0.524,0,0.999,0,1.482,0c0-0.455,0-0.907,0-1.361c0.623-0.169,1.466-0.397,1.519-0.411
		c0.85-0.224,1.7-0.44,2.55-0.663c0.4-0.107,0.764-0.037,1.073,0.237c0.199,0.183,0.388,0.377,0.571,0.575
		c0.447,0.481,0.922,0.933,1.538,1.189c0.498,0.206,1.012,0.37,1.524,0.534c1.613,0.526,3.226,1.047,4.845,1.553
		C19.209,21.258,20.306,20.271,20.104,19.078z"/>
	<g>
		<path d="M24.74,11.414c-0.036,0.005-0.068,0.021-0.094,0.053l-0.476,0.575c-0.218-0.117-0.438-0.176-0.663-0.185l0.648-0.784
			c0.026-0.031,0.037-0.064,0.034-0.101c-0.002-0.037-0.022-0.068-0.054-0.096l-0.34-0.286c-0.031-0.023-0.068-0.033-0.104-0.03
			c-0.037,0.005-0.067,0.021-0.094,0.052l-2.317,2.801c-0.026,0.029-0.036,0.064-0.034,0.102c0.003,0.038,0.021,0.069,0.052,0.096
			l0.448,0.371c0.029,0.025,0.064,0.032,0.101,0.028c0.039-0.003,0.071-0.021,0.095-0.048l0.403-0.487
			c0.392-0.473,0.765-0.672,1.126-0.59l-1.151,1.391c-0.026,0.032-0.036,0.064-0.033,0.104c0.002,0.037,0.02,0.069,0.051,0.093
			l0.344,0.285c0.031,0.024,0.067,0.034,0.101,0.03c0.039-0.004,0.068-0.02,0.094-0.051l1.19-1.438
			c0.142,0.205,0.188,0.434,0.134,0.696c-0.052,0.261-0.199,0.534-0.445,0.832l-0.312,0.379c-0.025,0.025-0.037,0.061-0.031,0.1
			c0.005,0.037,0.02,0.07,0.048,0.094l0.429,0.356c0.028,0.022,0.062,0.031,0.1,0.026c0.814-0.053,1.916-0.082,3.307-0.085
			c0.044,0.001,0.078-0.015,0.11-0.051l0.544-0.655c0.037-0.049,0.046-0.099,0.019-0.147c-0.021-0.06-0.062-0.083-0.125-0.079
			c-1.344-0.01-2.369,0.007-3.081,0.051c0.273-0.419,0.404-0.831,0.398-1.233c-0.006-0.406-0.147-0.77-0.428-1.09l0.466-0.564
			c0.027-0.025,0.036-0.063,0.033-0.1c-0.001-0.036-0.02-0.068-0.049-0.095l-0.344-0.278C24.81,11.424,24.778,11.412,24.74,11.414
			L24.74,11.414z"/>
	</g>
</g>
</svg>
