<?xml version="1.0" encoding="utf-8"?>
<!-- Generator: Adobe Illustrator 16.0.0, SVG Export Plug-In . SVG Version: 6.00 Build 0)  -->
<!DOCTYPE svg PUBLIC "-//W3C//DTD SVG 1.1//EN" "http://www.w3.org/Graphics/SVG/1.1/DTD/svg11.dtd">
<svg version="1.1" id="Layer_1" xmlns="http://www.w3.org/2000/svg" xmlns:xlink="http://www.w3.org/1999/xlink" x="0px" y="0px"
	 width="50px" height="50px" viewBox="0 0 50 50" enable-background="new 0 0 50 50" xml:space="preserve">
<path fill="#FF0000" d="M40.501,35.979c0.918,0,1.79,0.11,2.577,0.323c0.664,0.185,1.236,0.354,1.865,0.516V33.12l-9.359-10.345
	l-9.201,10.279v6.107c0.21,0.153,0.567,0.334,0.867,0.538c0.825,0.565,1.779,0.984,2.82,1.229c0.027-0.854,0.478-1.635,1.293-2.229
	c0.433-0.313,0.893-0.563,1.521-0.793v-3.926h5.351v2.196C38.967,36.052,39.771,35.979,40.501,35.979L40.501,35.979z"/>
<g>
	<g>
		<g>
			<defs>
				<rect id="SVGID_1_" x="22.585" y="17.613" width="25.923" height="31.065"/>
			</defs>
			<clipPath id="SVGID_2_">
				<use xlink:href="#SVGID_1_"  overflow="visible"/>
			</clipPath>
			<path clip-path="url(#SVGID_2_)" fill="#FFFFFF" d="M46.059,31.89h2.407l-3.729-4.161v-6.64h-3.881v2.354l-5.293-5.828
				L22.768,31.89h2.373l10.401-11.621L46.059,31.89z"/>
		</g>
	</g>
</g>
<rect x="22.585" y="17.613" fill="none" width="25.923" height="31.065"/>
<path fill="none" stroke="#FFFFFF" stroke-width="1.7" stroke-miterlimit="10" d="M23.939,40.154c-1.334,0-1.598,1.37-0.929,2.057
	c1.395,1.428,6.534,5.612,9.495,6.328c0.363,0.088,0.802,0.125,1.289,0.125c3.487,0,9.647-1.962,11.171-1.962
	c0.828,0,2.285,0.438,3.545,0.905v-8.021c-0.631-0.204-2.838-0.831-5.894-1.665c-0.673-0.182-1.399-0.264-2.134-0.264
	c-1.76,0-3.608,0.463-5.123,1.078c-2.069,0.836-4.047,1.296-3.537,2.725c0.109,0.31,0.582,0.412,1.199,0.412
	c1.254,0,3.101-0.427,3.717-0.427c0.308,0,0.31,0.104-0.221,0.425c-1.066,0.641-2.58,1-4.221,1c-2.015,0-4.221-0.545-6.021-1.785
	C25.291,40.41,24.516,40.154,23.939,40.154L23.939,40.154z"/>
<g>
	<path fill="#FF0000" d="M20.754,27.658c-2.763-2.319-5.501-4.618-8.24-6.914c0.009-0.018,0.019-0.033,0.029-0.052
		c0.538,0.171,1.074,0.346,1.611,0.515c0.865,0.276,1.728,0.558,2.594,0.827c1.216,0.371,2.473-0.099,3.144-1.164
		c0.667-1.065,0.552-2.423-0.322-3.34c-0.249-0.259-0.566-0.464-0.881-0.646c-1.133-0.654-2.281-1.281-3.42-1.927
		c-0.076-0.042-0.148-0.09-0.258-0.156c3.861-4.603,7.711-9.193,11.583-13.811c3.23,2.71,6.449,5.412,9.699,8.139
		C31.115,15.304,25.947,21.466,20.754,27.658z M23.415,10.256c-2.13-0.001-3.841,1.645-3.854,3.706
		c-0.02,2.666,2.336,4.737,4.99,4.39c1.775-0.229,3.184-1.782,3.246-3.571C27.879,12.349,25.853,10.257,23.415,10.256z"/>
	<path fill="none" stroke="#FFFFFF" stroke-width="1.7" stroke-miterlimit="10" d="M19.149,19.125
		c-0.097-0.575-0.439-0.944-0.932-1.22c-1.701-0.946-3.396-1.901-5.092-2.855c-0.462-0.259-0.653-0.686-0.526-1.139
		c0.119-0.427,0.515-0.705,1.019-0.707c0.341-0.002,0.682-0.01,1.022,0.002c0.175,0.008,0.288-0.056,0.397-0.188
		c0.859-1.029,1.725-2.062,2.589-3.089c0.38-0.452,0.757-0.906,1.147-1.38c-0.06-0.023-0.091-0.042-0.123-0.047
		c-1.486-0.262-2.971-0.528-4.457-0.78c-0.931-0.16-1.856-0.174-2.776,0.095C9.685,8.313,7.949,8.811,6.209,9.289
		C5.829,9.393,5.425,9.43,5.028,9.462C4.835,9.479,4.076,9.62,3.439,9.796c0-0.426,0-0.855,0-1.281c-0.826,0-1.633,0-2.486,0
		c0.334,3.615,0.669,7.202,1.001,10.776c0.525,0,1.001,0,1.485,0c0-0.458,0-0.91,0-1.365c0.625-0.17,1.47-0.399,1.523-0.413
		c0.852-0.226,1.704-0.442,2.556-0.664c0.401-0.109,0.766-0.038,1.076,0.237c0.2,0.182,0.389,0.377,0.572,0.577
		c0.447,0.481,0.925,0.933,1.542,1.191c0.499,0.207,1.015,0.371,1.528,0.536c1.617,0.528,3.233,1.049,4.857,1.556
		C18.253,21.309,19.353,20.32,19.149,19.125z"/>
	<g>
		<path fill="#FFFFFF" d="M23.799,11.441c-0.036,0.005-0.068,0.021-0.095,0.053l-0.478,0.576c-0.218-0.117-0.439-0.176-0.664-0.184
			l0.651-0.785c0.025-0.031,0.036-0.064,0.034-0.103c-0.003-0.037-0.023-0.069-0.054-0.095l-0.341-0.289
			c-0.031-0.022-0.067-0.031-0.104-0.029c-0.037,0.006-0.068,0.021-0.095,0.053l-2.322,2.807c-0.025,0.028-0.036,0.066-0.034,0.104
			c0.002,0.038,0.021,0.068,0.052,0.095l0.45,0.373c0.029,0.025,0.064,0.033,0.101,0.028c0.039-0.003,0.072-0.023,0.096-0.049
			l0.404-0.487c0.393-0.475,0.767-0.675,1.129-0.591l-1.153,1.393c-0.027,0.034-0.037,0.065-0.034,0.104
			c0.002,0.037,0.021,0.068,0.052,0.092l0.344,0.287c0.031,0.025,0.066,0.033,0.102,0.029c0.039-0.003,0.069-0.021,0.094-0.052
			l1.193-1.441c0.143,0.207,0.188,0.435,0.134,0.696c-0.052,0.264-0.2,0.538-0.446,0.835l-0.313,0.381
			c-0.025,0.024-0.036,0.062-0.031,0.1c0.005,0.035,0.021,0.07,0.048,0.093l0.429,0.358c0.029,0.022,0.062,0.03,0.1,0.025
			c0.817-0.053,1.921-0.082,3.316-0.085c0.044,0.001,0.078-0.016,0.109-0.052l0.546-0.656c0.038-0.048,0.046-0.099,0.02-0.148
			c-0.022-0.058-0.063-0.081-0.125-0.077c-1.349-0.009-2.377,0.007-3.09,0.052c0.273-0.424,0.405-0.833,0.4-1.239
			s-0.148-0.77-0.429-1.091l0.468-0.566c0.026-0.023,0.036-0.063,0.034-0.1c-0.002-0.037-0.021-0.068-0.051-0.096l-0.344-0.278
			C23.869,11.45,23.836,11.439,23.799,11.441L23.799,11.441z"/>
	</g>
</g>
</svg>
