<?xml version="1.0" encoding="utf-8"?>
<!-- Generator: Adobe Illustrator 16.0.0, SVG Export Plug-In . SVG Version: 6.00 Build 0)  -->
<!DOCTYPE svg PUBLIC "-//W3C//DTD SVG 1.1//EN" "http://www.w3.org/Graphics/SVG/1.1/DTD/svg11.dtd">
<svg version="1.1" id="Layer_1" xmlns="http://www.w3.org/2000/svg" xmlns:xlink="http://www.w3.org/1999/xlink" x="0px" y="0px"
	 width="50px" height="50px" viewBox="0 0 50 50" enable-background="new 0 0 50 50" xml:space="preserve">
<g>
	<g>
		<path fill="#FF0000" d="M22.581,8.063L13.71,5.647L11.53,7.46c-0.685-1.026-1.046-2.221-1.046-3.454V2.018
			c0-1.111,0.904-2.016,2.016-2.016s2.016,0.904,2.016,2.016v0.808c0,0.222,0.181,0.402,0.403,0.402s0.403-0.182,0.403-0.402V2.018
			c0-1.111,0.904-2.016,2.016-2.016c1.112,0,2.016,0.904,2.016,2.016v0.808c0,0.222,0.181,0.402,0.403,0.402
			c0.222,0,0.403-0.182,0.403-0.402V2.018c0-1.111,0.904-2.016,2.016-2.016c1.112,0,2.016,0.904,2.016,2.016v1.988
			c0,1.233-0.361,2.428-1.046,3.454L22.581,8.063z"/>
		<path d="M9.868,20.16l-1.613-0.808h-2.61V7.256H0v15.323h5.645v-1.613h2.229l1.613,0.808h0.997V20.16H9.868L9.868,20.16z
			 M4.032,20.966H1.613V8.869h2.419V20.966L4.032,20.966z"/>
		<path fill="#FF0000" d="M17.748,37.904c-0.146,0-0.291-0.002-0.438-0.008c-5.443-0.221-9.952-4.835-10.05-10.284
			c-0.051-2.813,1.001-5.471,2.962-7.486c1.729-1.778,2.682-3.997,2.682-6.245l4.032-2.589l1.613,1.613v8.062h5.645l0.944-0.971
			c1.992,1.979,3.088,4.617,3.088,7.426c0,2.881-1.146,5.566-3.224,7.563C23.032,36.877,20.469,37.904,17.748,37.904z"/>
		<path d="M25.177,11.292c0.388-0.429,0.63-0.993,0.63-1.614c0-1.334-1.085-2.421-2.419-2.421h-3.002l-0.561-0.702l-6.302-1.802
			L8.579,8.869h-3.74v1.613h4.324l4.735-3.944l4.988,1.425l1.697,2.121c0.224,0.28,0.323,0.632,0.278,0.988
			c-0.045,0.355-0.229,0.673-0.517,0.888c-0.52,0.39-1.26,0.337-1.721-0.123l-1.627-1.627L12.4,13.887l1.007,1.261l3.469-2.775
			l0.606,0.606c0.089,0.09,0.188,0.161,0.286,0.236c0.059,0.588,0.273,0.936,0.603,1.3c-0.387,0.43-0.629,0.992-0.629,1.614
			s0.243,1.186,0.629,1.613c-0.387,0.429-0.629,0.989-0.629,1.61c0,1.336,1.085,2.42,2.419,2.42h3.226
			c1.334,0,2.419-1.084,2.419-2.419c0-0.621-0.242-1.183-0.63-1.611c0.388-0.429,0.63-0.99,0.63-1.613s-0.242-1.184-0.63-1.613
			c0.388-0.429,0.63-0.99,0.63-1.612S25.563,11.721,25.177,11.292z M23.387,20.16h-3.226c-0.444,0-0.806-0.362-0.806-0.808
			c0-0.444,0.362-0.806,0.806-0.806h3.226c0.444,0,0.806,0.362,0.806,0.806C24.193,19.798,23.832,20.16,23.387,20.16z
			 M23.387,16.934h-3.226c-0.444,0-0.806-0.361-0.806-0.806s0.362-0.807,0.806-0.807h3.226c0.444,0,0.806,0.361,0.806,0.807
			S23.832,16.934,23.387,16.934z M23.387,13.708h-2.988c0.322-0.096,0.632-0.246,0.913-0.457c0.406-0.305,0.707-0.706,0.906-1.156
			h1.169c0.444,0,0.806,0.362,0.806,0.807S23.832,13.708,23.387,13.708z M23.387,10.482h-0.946
			c-0.074-0.509-0.269-0.992-0.599-1.406L21.676,8.87h1.711c0.444,0,0.806,0.362,0.806,0.806
			C24.193,10.12,23.832,10.482,23.387,10.482z"/>
		<path d="M44.355,37.901v2.419h-5.401l-2.216-1.478l-6.797-2.41c-0.646-0.229-1.342-0.182-1.953,0.129
			c-0.611,0.312-1.059,0.843-1.258,1.499c-0.344,1.137,0.168,2.366,1.217,2.924l1.746,0.927l-2.539,0.009l-1.045-2.61
			c-0.342-0.854-1.16-1.407-2.083-1.407c-0.72,0-1.401,0.351-1.821,0.935c-0.42,0.585-0.534,1.342-0.304,2.023l0.244,0.725
			l-1.769-0.967c-0.563-0.31-1.236-0.369-1.844-0.163c-0.609,0.203-1.11,0.655-1.375,1.24c-0.518,1.144-0.041,2.476,1.085,3.029
			l3.98,1.966l8.263,1.681l10.722,0.015l3.146-0.629v2.242H50V37.901H44.355L44.355,37.901z M23.516,39.776
			c0.271-0.378,0.924-0.299,1.096,0.134l0.807,2.015l-1.453,0.005l-0.534-1.586C23.366,40.15,23.396,39.943,23.516,39.776z
			 M41.049,46.772H30.725l-7.882-1.577l-3.886-1.916c-0.341-0.169-0.486-0.572-0.329-0.92c0.081-0.182,0.229-0.314,0.417-0.377
			c0.187-0.064,0.387-0.046,0.56,0.051l2.77,1.514h7.654l3.182-1.592l-4.507-2.396c-0.369-0.195-0.55-0.63-0.429-1.029
			c0.07-0.232,0.227-0.42,0.442-0.529c0.216-0.11,0.462-0.125,0.688-0.046l6.521,2.288l2.537,1.69h5.892v4.179L41.049,46.772z
			 M48.387,48.385h-2.419v-8.87h2.419V48.385z"/>
		<g>
			<path d="M20.987,25.71c-0.051-0.05-0.114-0.075-0.191-0.075h-1.417c-0.095-0.458-0.271-0.856-0.531-1.193h1.931
				c0.078,0,0.142-0.025,0.191-0.075c0.049-0.05,0.075-0.113,0.075-0.191v-0.846c0-0.077-0.025-0.141-0.075-0.189
				c-0.05-0.05-0.114-0.075-0.191-0.075H13.88c-0.078,0-0.141,0.025-0.191,0.075c-0.049,0.049-0.074,0.112-0.074,0.189v1.104
				c0,0.072,0.026,0.134,0.079,0.187c0.052,0.052,0.114,0.079,0.187,0.079h1.202c1.167,0,1.907,0.312,2.223,0.937H13.88
				c-0.078,0-0.141,0.024-0.191,0.075c-0.049,0.05-0.074,0.112-0.074,0.19v0.846c0,0.077,0.024,0.141,0.074,0.191
				c0.051,0.049,0.114,0.073,0.191,0.073h3.541c-0.122,0.454-0.405,0.8-0.85,1.036c-0.444,0.238-1.032,0.357-1.762,0.357H13.88
				c-0.072,0-0.134,0.026-0.187,0.078c-0.052,0.053-0.079,0.115-0.079,0.188v1.053c0,0.072,0.024,0.133,0.074,0.182
				c1.063,1.129,2.438,2.706,4.13,4.736c0.05,0.065,0.118,0.099,0.207,0.099h1.618c0.115,0,0.196-0.05,0.24-0.149
				c0.056-0.1,0.045-0.193-0.033-0.282c-1.615-1.979-2.883-3.46-3.807-4.444c0.94-0.109,1.703-0.414,2.289-0.912
				c0.586-0.497,0.943-1.145,1.07-1.939h1.393c0.078,0,0.141-0.025,0.191-0.074c0.049-0.051,0.074-0.114,0.074-0.191V25.9
				C21.061,25.823,21.036,25.76,20.987,25.71L20.987,25.71z M20.987,25.71"/>
		</g>
	</g>
</g>
</svg>
