<?xml version="1.0" encoding="utf-8"?>
<!-- Generator: Adobe Illustrator 16.0.0, SVG Export Plug-In . SVG Version: 6.00 Build 0)  -->
<!DOCTYPE svg PUBLIC "-//W3C//DTD SVG 1.1//EN" "http://www.w3.org/Graphics/SVG/1.1/DTD/svg11.dtd">
<svg version="1.1" id="Layer_1" xmlns="http://www.w3.org/2000/svg" xmlns:xlink="http://www.w3.org/1999/xlink" x="0px" y="0px"
	 width="50px" height="50px" viewBox="0 0 50 50" enable-background="new 0 0 50 50" xml:space="preserve">
<path fill="none" stroke="#FFFFFF" stroke-width="1.7" stroke-miterlimit="10" d="M33.969,47.328
	c-0.447-0.047-0.895-0.082-1.337-0.146c-1.788-0.253-3.579-0.477-5.358-0.788c-2.649-0.462-5.292-0.986-7.935-1.487
	c-0.252-0.049-0.506-0.09-0.75-0.164c-0.677-0.207-1.309-0.073-1.899,0.298c-0.354,0.224-0.68,0.496-1.017,0.749
	c-0.07,0.053-0.13,0.12-0.199,0.174c-0.151,0.117-0.306,0.271-0.503,0.149c-0.199-0.122-0.238-0.354-0.227-0.574
	c0.056-1.065,0.124-2.132,0.187-3.196c0.103-1.723,0.206-3.441,0.308-5.164c0.079-1.334,0.155-2.669,0.237-4.004
	c0.024-0.387,0.171-0.564,0.547-0.636c0.831-0.153,1.663-0.312,2.498-0.427c1.374-0.194,2.749-0.369,4.126-0.533
	c1.211-0.145,2.393,0.096,3.567,0.377c2.531,0.611,4.996,1.477,7.462,2.336c0.655,0.229,1.305,0.494,1.975,0.649
	c1.021,0.235,1.455,1.552,0.791,2.515c-0.383,0.559-0.926,0.826-1.521,0.988c-0.951,0.258-1.925,0.295-2.885,0.164
	c-1.527-0.207-3.043-0.494-4.564-0.742c-0.189-0.033-0.386-0.045-0.578-0.049c-0.154-0.006-0.201,0.094-0.15,0.252
	c0.104,0.32,0.324,0.551,0.59,0.686c0.58,0.289,1.162,0.6,1.773,0.789c1.965,0.605,3.977,0.918,6.015,0.695
	c1.149-0.125,2.29-0.406,3.413-0.715c2.363-0.647,4.619-1.613,6.763-2.883c0.416-0.246,0.853-0.364,1.319-0.242
	c0.806,0.21,1.271,1.094,1.089,2.049c-0.155,0.82-0.571,1.489-1.171,1.975c-0.997,0.811-2.02,1.586-3.074,2.303
	c-2.184,1.488-4.43,2.861-6.807,3.955c-0.58,0.27-1.197,0.438-1.797,0.65C34.557,47.328,34.264,47.328,33.969,47.328z"/>
<path fill="none" stroke="#FFFFFF" stroke-width="1.7" stroke-miterlimit="10" d="M6.933,46.601c-1.239,0-2.479,0-3.717,0
	c-0.101,0-0.202-0.005-0.302-0.017c-0.464-0.065-0.735-0.457-0.683-0.959c0.234-2.255,0.465-4.512,0.696-6.77
	c0.199-1.945,0.396-3.896,0.599-5.842c0.06-0.584,0.646-1.097,1.237-1.064c2.343,0.121,4.687,0.25,7.03,0.381
	c0.532,0.029,0.918,0.48,0.891,1.078c-0.037,0.805-0.103,1.607-0.159,2.415c-0.117,1.65-0.236,3.304-0.353,4.956
	c-0.112,1.585-0.218,3.172-0.336,4.755c-0.05,0.665-0.474,1.06-1.138,1.063C9.442,46.604,8.188,46.601,6.933,46.601z M9.588,42.815
	c0-1.161-0.861-2.1-1.93-2.104c-1.08-0.004-1.95,0.939-1.949,2.108c0.002,1.163,0.86,2.097,1.93,2.104
	C8.714,44.934,9.588,43.986,9.588,42.815z"/>
<path fill="#FF0000" d="M45.014,7.741h-8.132V5.606c0-1.689-1.373-3.063-3.06-3.063h-5.783c-1.688,0-3.062,1.374-3.062,3.063v2.135
	h-8.131c-0.885,0-1.602,0.715-1.602,1.598V26.4c0,0.883,0.716,1.6,1.602,1.6h28.167c0.885,0,1.602-0.717,1.602-1.6V9.339
	C46.615,8.456,45.898,7.741,45.014,7.741L45.014,7.741z M28.156,5.725h5.546v2.019h-5.546V5.725z M30.93,25.695
	c-4.322,0-7.827-3.503-7.827-7.826c0-4.322,3.502-7.825,7.827-7.825c4.322,0,7.826,3.503,7.826,7.825
	C38.756,22.192,35.251,25.695,30.93,25.695L30.93,25.695z"/>
<g>
	<path fill="#FFFFFF" d="M34.217,15.228c-0.04-0.041-0.093-0.061-0.154-0.061h-1.146c-0.077-0.372-0.222-0.693-0.431-0.968h1.563
		c0.063,0,0.114-0.021,0.155-0.061c0.04-0.042,0.063-0.093,0.063-0.154V13.3c0-0.063-0.021-0.116-0.063-0.156
		c-0.041-0.037-0.092-0.059-0.155-0.059h-5.586c-0.063,0-0.112,0.021-0.153,0.059c-0.039,0.04-0.06,0.095-0.06,0.156v0.895
		c0,0.059,0.021,0.106,0.063,0.149c0.041,0.043,0.094,0.063,0.148,0.063h0.975c0.944,0,1.545,0.252,1.801,0.758h-2.773
		c-0.063,0-0.113,0.021-0.154,0.062c-0.039,0.04-0.059,0.093-0.059,0.153v0.687c0,0.063,0.02,0.113,0.059,0.153
		c0.041,0.041,0.092,0.063,0.154,0.063h2.867c-0.098,0.366-0.328,0.646-0.688,0.839c-0.36,0.19-0.836,0.289-1.429,0.289h-0.753
		c-0.059,0-0.107,0.021-0.148,0.063c-0.043,0.042-0.063,0.096-0.063,0.151v0.854c0,0.06,0.021,0.106,0.06,0.146
		c0.858,0.914,1.976,2.192,3.344,3.835c0.041,0.054,0.098,0.082,0.17,0.082h1.308c0.097,0,0.161-0.042,0.195-0.123
		c0.045-0.08,0.036-0.156-0.027-0.228c-1.306-1.604-2.334-2.805-3.079-3.601c0.76-0.09,1.377-0.335,1.853-0.739
		c0.476-0.401,0.764-0.927,0.866-1.568h1.127c0.063,0,0.115-0.021,0.154-0.063c0.041-0.04,0.062-0.093,0.062-0.152v-0.687
		C34.277,15.318,34.257,15.268,34.217,15.228L34.217,15.228z"/>
</g>
</svg>
