<?xml version="1.0" encoding="utf-8"?>
<!-- Generator: Adobe Illustrator 16.0.0, SVG Export Plug-In . SVG Version: 6.00 Build 0)  -->
<!DOCTYPE svg PUBLIC "-//W3C//DTD SVG 1.1//EN" "http://www.w3.org/Graphics/SVG/1.1/DTD/svg11.dtd">
<svg version="1.1" id="Capa_1" xmlns="http://www.w3.org/2000/svg" xmlns:xlink="http://www.w3.org/1999/xlink" x="0px" y="0px"
	 width="1000px" height="1000px" viewBox="7691.5 7691.5 1000 1000" enable-background="new 7691.5 7691.5 1000 1000"
	 xml:space="preserve">
<path fill="#FF0000" d="M8301.609,8067.936v-47.973l-507.173-0.967v49.601l18.275-0.052l0.125,174.501l-24.758-0.131l-0.042,60.886
	l511.251-1.418v-58.806h-18.569l0.126-174.98L8301.609,8067.936z M7860.527,8215.743c0,5.371-4.379,9.728-9.779,9.728
	c-5.398,0-9.777-4.356-9.777-9.728v-108.98c0-5.375,4.379-9.732,9.777-9.732c5.4,0,9.779,4.356,9.779,9.732V8215.743z
	 M8251.641,8215.743c0,5.371-4.379,9.728-9.78,9.728c-5.399,0-9.778-4.356-9.778-9.728v-108.98c0-5.375,4.379-9.732,9.778-9.732
	c5.403,0,9.78,4.356,9.78,9.732V8215.743z"/>
<polygon fill="#FF0000" points="7794.437,7922.995 7794.437,7972.596 8298.445,7972.596 8298.445,7922.995 8045.836,7767.792 "/>
<path d="M8087.552,7845.502h-14.655c-0.987-4.824-2.844-8.87-5.525-12.396h20.014c0.825,0,1.424-0.307,2.021-0.743
	c0.456-0.537,0.743-1.255,0.743-2.063v-8.752c0-0.74-0.287-1.4-0.743-2.001c-0.535-0.431-1.196-0.741-2.021-0.741h-71.597
	c-0.786,0-1.402,0.311-1.961,0.741c-0.537,0.535-0.766,1.261-0.766,2.001v11.41c0,0.787,0.229,1.404,0.828,2.004
	c0.455,0.513,1.235,0.825,1.899,0.825h12.502c12.092,0,19.83,3.177,23.067,9.715h-35.569c-0.786,0-1.402,0.269-1.961,0.807
	c-0.537,0.434-0.766,1.139-0.766,1.943v8.786c0,0.789,0.229,1.381,0.766,1.983c0.471,0.512,1.175,0.76,1.961,0.76h36.724
	c-1.277,4.725-4.189,8.318-8.789,10.751c-4.624,2.475-10.729,3.719-18.3,3.719h-9.635c-0.664,0-1.362,0.308-1.899,0.818
	c-0.599,0.495-0.828,1.263-0.828,1.946v11.013c0,0.726,0.229,1.321,0.766,1.837c10.998,11.698,25.272,28.104,42.813,49.147
	c0.474,0.665,1.26,1.033,2.164,1.033h16.779c1.236,0,2.102-0.538,2.515-1.571c0.54-1.026,0.458-1.999-0.413-2.928
	c-16.711-20.489-29.877-35.899-39.451-46.152c9.739-1.18,17.664-4.232,23.732-9.432c6.064-5.162,9.777-11.904,11.1-20.119h14.444
	c0.782,0,1.465-0.245,2.043-0.763c0.472-0.536,0.721-1.198,0.721-1.979v-8.794c0.081-0.86-0.164-1.504-0.68-1.999
	C8089.076,7845.771,8088.373,7845.502,8087.552,7845.502z"/>
<g>
	<path d="M8366.598,8290.287h-617.448v-0.102h-22.737c-5.399,0-9.779,4.357-9.779,9.73v45.058c0,5.376,4.379,9.731,9.779,9.731
		h638.848c5.4,0,9.78-4.355,9.78-9.731v-45.058C8375.04,8294.996,8371.364,8290.938,8366.598,8290.287z M8355.481,8335.246h-619.29
		v-25.602h55.891h117.334h44h185.78h44h117.335h54.95V8335.246z"/>
	<path d="M7733.357,7972.98l52.858-32.492v20.318h-14.665c-5.4,0-9.778,4.359-9.778,9.731v48.654c0,5.373,4.378,9.728,9.778,9.728
		h10.754v0.18h19.556v-0.181h97.779v0.181h19.554v-0.181h254.223v0.181h19.556v-0.181h97.779v0.181h19.554v-0.181h10.756
		c5.4,0,9.779-4.356,9.779-9.729v-48.653c0-5.374-4.379-9.73-9.779-9.73h-14.667v-20.318l52.857,32.487
		c1.575,0.969,3.358,1.452,5.141,1.452c1.768,0,3.534-0.474,5.104-1.426c2.994-1.821,4.677-5.202,4.677-8.695v-59.564
		c0-3.372-1.759-6.503-4.642-8.275l-140.901-86.607c-4.595-2.822-10.619-1.405-13.459,3.168c-2.836,4.571-1.413,10.568,3.184,13.392
		l136.261,83.755v37.08l-303.169-186.345c-3.153-1.937-7.13-1.937-10.279,0l-303.172,186.343v-37.081l308.309-189.501
		l133.058,81.786c4.596,2.82,10.621,1.402,13.459-3.167c2.837-4.575,1.413-10.571-3.183-13.393l-138.192-84.942
		c-3.153-1.938-7.13-1.938-10.279,0l-318.088,195.513c-2.886,1.77-4.64,4.903-4.64,8.275v59.672c0,2.813,1.08,5.577,3.174,7.468
		C7724.927,7974.874,7729.707,7975.225,7733.357,7972.98z M8311.283,7980.268v29.19h-10.752h-117.335h-273.779h-117.335h-10.755
		v-29.19H8311.283z M7805.773,7928.469l240.531-147.844l240.534,147.844v32.337h-481.064V7928.469z"/>
</g>
<polygon points="8102.872,8242.492 8107.447,8242.492 8107.447,8256.607 7985.165,8256.607 7985.165,8242.492 7989.741,8242.492 "/>
<path d="M7999.519,8223.033v-73.822c0-22.335,15.891-41.042,37.009-45.53v119.353H7999.519z"/>
<path d="M8056.084,8223.033v-119.353c21.12,4.488,37.008,23.195,37.008,45.53v73.822H8056.084z"/>
<polygon points="8117.225,8276.07 8129.417,8276.07 8129.417,8290.186 7963.193,8290.186 7963.193,8276.07 7975.387,8276.07 "/>
<g>
	<g>
		<path fill="#FF0000" d="M8586.374,8400.502c0,103.133-84.123,186.734-187.891,186.734c-103.767,0-187.889-83.602-187.889-186.734
			c0-103.135,84.122-186.738,187.889-186.738C8502.251,8213.764,8586.374,8297.367,8586.374,8400.502z"/>
		<g>
			<path d="M8468.842,8346.639c-0.846-0.873-1.996-1.307-3.342-1.307h-23.979c-1.615-7.848-4.657-14.424-9.044-20.163h32.751
				c1.35,0,2.329-0.5,3.308-1.206c0.743-0.875,1.216-2.047,1.216-3.357v-14.23c0-1.206-0.473-2.278-1.216-3.255
				c-0.88-0.699-1.958-1.207-3.308-1.207h-117.155c-1.283,0-2.293,0.508-3.206,1.207c-0.879,0.872-1.251,2.049-1.251,3.255v18.557
				c0,1.276,0.372,2.281,1.352,3.254c0.746,0.84,2.021,1.344,3.105,1.344h20.458c19.785,0,32.451,5.168,37.744,15.803h-58.202
				c-1.283,0-2.293,0.434-3.206,1.307c-0.879,0.709-1.251,1.854-1.251,3.164v14.283c0,1.287,0.372,2.25,1.251,3.23
				c0.771,0.832,1.923,1.237,3.206,1.237h60.093c-2.087,7.687-6.852,13.526-14.381,17.48c-7.563,4.028-17.554,6.046-29.946,6.046
				h-15.766c-1.084,0-2.229,0.504-3.105,1.333c-0.979,0.811-1.352,2.054-1.352,3.165v17.912c0,1.176,0.372,2.146,1.251,2.988
				c17.996,19.021,41.354,45.703,70.055,79.926c0.772,1.078,2.058,1.679,3.541,1.679h27.451c2.024,0,3.441-0.874,4.119-2.554
				c0.88-1.674,0.747-3.252-0.678-4.762c-27.344-33.324-48.889-58.382-64.554-75.057c15.939-1.92,28.904-6.879,38.833-15.337
				c9.921-8.395,15.998-19.362,18.162-32.723h23.63c1.285,0,2.402-0.396,3.348-1.235c0.772-0.873,1.178-1.954,1.178-3.223v-14.299
				C8470.086,8348.492,8469.687,8347.446,8468.842,8346.639L8468.842,8346.639z"/>
		</g>
	</g>
	<g>
		<g>
			<g>
				<path d="M8615.913,8616.166l2.757-47.584c0.36-6.256-4.441-11.645-10.725-12.033l-47.804-2.954
					c-6.285-0.39-11.677,4.366-12.038,10.624s4.439,11.646,10.726,12.035l19.202,1.187c-96.311,92.026-250.099,92.899-348.242-0.015
					c-6.661-6.305-13.03-13.018-18.936-19.949c-4.066-4.772-11.275-5.4-16.068-1.363c-4.796,4.045-5.375,11.205-1.294,15.997
					c6.431,7.558,13.373,14.868,20.625,21.735c53.346,50.504,123.155,77.385,196.576,75.693
					c69.389-1.6,134.143-28.555,183.697-76.201l-1.237,21.422c-0.2,3.476,1.189,6.689,3.546,8.918
					c1.884,1.785,4.386,2.943,7.178,3.115C8610.163,8627.18,8615.55,8622.426,8615.913,8616.166z"/>
			</g>
		</g>
		<g>
			<g>
				<path d="M8662.237,8488.76c36.431-101.945,8.909-216.159-70.11-290.967c-30.897-29.253-68.112-50.975-108.469-63.454
					l14.223-7.058c5.624-2.794,7.89-9.61,5.063-15.219c-2.832-5.614-9.684-7.903-15.309-5.108l-42.778,21.234
					c-5.623,2.791-7.889,9.604-5.061,15.217l21.514,42.69c0.612,1.215,1.411,2.272,2.343,3.155
					c3.392,3.208,8.558,4.142,12.964,1.951c5.625-2.79,7.892-9.605,5.063-15.22l-10.998-21.818
					c39.428,11.067,75.829,31.701,105.771,60.049c72.472,68.607,97.714,173.354,64.306,266.854
					c-1.559,4.358-0.268,9.055,2.907,12.062c1.118,1.061,2.471,1.91,4.018,2.463
					C8653.615,8497.717,8660.132,8494.658,8662.237,8488.76z"/>
			</g>
		</g>
		<g>
			<g>
				<path d="M8159.362,8481.742l26.287-39.74c3.459-5.226,1.996-12.261-3.269-15.733c-5.266-3.464-12.332-2.038-15.789,3.185
					l-10.484,15.85c-16.343-79.797,7.193-163.504,63.862-222.878c37.136-38.908,84.774-64.433,137.754-73.81
					c6.195-1.097,10.302-6.987,9.176-13.156c-1.127-6.173-7.065-10.29-13.259-9.192c-57.785,10.224-109.737,38.054-150.231,80.481
					c-33.79,35.402-57.414,79.177-68.32,126.591c-8.93,38.843-9.177,79.297-0.912,118.239l-18.107-11.926
					c-5.264-3.461-12.331-2.039-15.785,3.185c-3.081,4.655-2.256,10.753,1.679,14.479c0.484,0.454,1.014,0.877,1.589,1.258
					l40.023,26.35C8148.836,8488.391,8155.905,8486.963,8159.362,8481.742z"/>
			</g>
		</g>
	</g>
</g>
</svg>
